<svg width="120" height="120" viewBox="0 0 120 120" fill="none" xmlns="http://www.w3.org/2000/svg">
<path d="M100.04 0H19.9599C8.89781 0 0 8.89781 0 19.9599V100.04C0 111.102 8.89781 120 19.9599 120H100.04C111.102 120 120 111.102 120 100.04V19.9599C120 8.89781 111.102 0 100.04 0ZM113.748 97.8758C113.507 98.1161 113.267 98.1161 113.026 98.1161C97.6354 88.7374 79.3586 83.4469 60.1204 83.4469C40.8818 83.4469 22.6052 88.7374 6.97395 98.1161C6.73346 98.3569 6.25249 98.1161 6.25249 97.8758C6.01204 97.6354 6.01204 97.1543 6.49297 97.1543C20.4409 86.3325 32.7054 72.6251 41.8436 56.2725C51.2224 40.1602 56.994 22.8457 59.3989 5.29058C59.3989 5.05009 59.6393 4.80964 60.1204 4.80964C60.3608 4.80964 60.6011 5.05009 60.8415 5.29058C63.2464 22.8457 69.018 40.1602 78.3967 56.2725C87.7755 72.3847 99.7995 86.0921 113.988 96.9139C113.988 97.1543 113.988 97.6354 113.748 97.8758Z" fill="#FE5000"/>
</svg>
