<svg width="184" height="48" viewBox="0 0 184 48" fill="none" xmlns="http://www.w3.org/2000/svg">
<g clip-path="url(#clip0_21133_3224)">
<path d="M56.3336 47.527L56.2947 47.4946C49.0835 41.9569 42.8163 34.9483 37.9796 26.6046C33.1462 18.2576 30.191 9.35133 28.9811 0.361025C28.9583 0.20262 28.8253 0.0830078 28.6664 0.0830078C28.5074 0.0830078 28.3712 0.20262 28.3485 0.361025C27.1385 9.35133 24.1833 18.2576 19.3499 26.6046C14.5165 34.9483 8.24927 41.9602 1.03807 47.4979L0.999148 47.5302C0.869392 47.6304 0.836953 47.8147 0.93427 47.9505C1.02834 48.0895 1.21325 48.125 1.35273 48.0442C9.32949 43.2533 18.6752 40.4957 28.6664 40.4957C38.6576 40.4957 48.0033 43.2533 55.9801 48.0442C56.1228 48.125 56.3044 48.0862 56.3985 47.9505C56.4926 47.8115 56.4602 47.6304 56.3304 47.5302L56.3336 47.527Z" fill="url(#paint0_linear_21133_3224)"/>
<path d="M165.974 22.1665C172.994 22.1665 176.699 24.7042 176.699 30.8012V30.9079C176.699 36.7947 172.959 39.3648 166.01 39.3648H143.394V13.1794H173.484V18.8885H153.164V22.1665H165.974ZM168.897 30.6234C168.897 28.5803 167.687 27.5911 165.157 27.5911H153.168V33.7236H165.228C167.723 33.7236 168.897 32.631 168.897 30.6913V30.6202V30.6234Z" fill="#2A363B"/>
<path d="M77.9347 13.1797L65.2153 39.365H75.6899L77.6492 34.7131H91.5072L93.4665 39.365H103.977L91.079 13.1797H77.9314H77.9347ZM80.1081 28.8974L83.5953 20.7023H85.6292L89.0872 28.8974H80.1081Z" fill="#2A363B"/>
<path d="M105.08 19.6288H116.304V39.3648H125.89V19.6288H137.075V13.1794H105.08V19.6288Z" fill="#2A363B"/>
</g>
<defs>
<linearGradient id="paint0_linear_21133_3224" x1="28.6664" y1="8.50111" x2="28.6664" y2="48.2834" gradientUnits="userSpaceOnUse">
<stop stop-color="#F07D1A"/>
<stop offset="1" stop-color="#E75922"/>
</linearGradient>
<clipPath id="clip0_21133_3224">
<rect width="184" height="48" fill="white"/>
</clipPath>
</defs>
</svg>
